HIERARCHY
ROOT Hips
{
  OFFSET 0 0 0
  CHANNELS 6 Xposition Yposition Zposition Zrotation Xrotation Yrotation
  JOINT Spine
  {
    OFFSET 0 8.18577 0
    CHANNELS 3 Zrotation Xrotation Yrotation
    JOINT Spine1
    {
      OFFSET 0 23.9492 0
      CHANNELS 3 Zrotation Xrotation Yrotation
      JOINT Neck
      {
        OFFSET 0 23.8508 2.16826
        CHANNELS 3 Zrotation Xrotation Yrotation
        JOINT Head
        {
          OFFSET 0 13.9757 -1.99653
          CHANNELS 3 Zrotation Xrotation Yrotation
          End Site
          {
            OFFSET 0 24.9566 0
          }
        }
      }
      JOINT LeftShoulder
      {
        OFFSET 3.97939 22.162 -0.249083
        CHANNELS 3 Zrotation Xrotation Yrotation
        JOINT LeftArm
        {
          OFFSET 10.8129 0 0
          CHANNELS 3 Zrotation Xrotation Yrotation
          JOINT LeftForeArm
          {
            OFFSET 31.6972 0 0
            CHANNELS 3 Zrotation Xrotation Yrotation
            JOINT LeftHand
            {
              OFFSET 27.0474 0 0
              CHANNELS 3 Zrotation Xrotation Yrotation
              End Site
              {
                OFFSET 14.974 0 0
              }
            }
          }
        }
      }
      JOINT RightShoulder
      {
        OFFSET -4.00645 22.162 -0.249083
        CHANNELS 3 Zrotation Xrotation Yrotation
        JOINT RightArm
        {
          OFFSET -10.8129 0 0
          CHANNELS 3 Zrotation Xrotation Yrotation
          JOINT RightForeArm
          {
            OFFSET -31.6972 0 0
            CHANNELS 3 Zrotation Xrotation Yrotation
            JOINT RightHand
            {
              OFFSET -27.0474 0 0
              CHANNELS 3 Zrotation Xrotation Yrotation
              End Site
              {
                OFFSET -14.974 0 0
              }
            }
          }
        }
      }
    }
  }
  JOINT LeftUpLeg
  {
    OFFSET 9.98265 0 0
    CHANNELS 3 Zrotation Xrotation Yrotation
    JOINT LeftLeg
    {
      OFFSET 0 -38.5116 0
      CHANNELS 3 Zrotation Xrotation Yrotation
      JOINT LeftFoot
      {
        OFFSET 0 -44.7893 0
        CHANNELS 3 Zrotation Xrotation Yrotation
        JOINT LeftToeBase
        {
          OFFSET 0 -6.48872 14.974
          CHANNELS 3 Zrotation Xrotation Yrotation
          End Site
          {
            OFFSET 0 0 3.99306
          }
        }
      }
    }
  }
  JOINT RightUpLeg
  {
    OFFSET -9.98265 0 0
    CHANNELS 3 Zrotation Xrotation Yrotation
    JOINT RightLeg
    {
      OFFSET 0 -38.5116 0
      CHANNELS 3 Zrotation Xrotation Yrotation
      JOINT RightFoot
      {
        OFFSET 0 -44.7893 0
        CHANNELS 3 Zrotation Xrotation Yrotation
        JOINT RightToeBase
        {
          OFFSET 0 -6.48872 14.974
          CHANNELS 3 Zrotation Xrotation Yrotation
          End Site
          {
            OFFSET 0 0 3.99306
          }
        }
      }
    }
  }
}
MOTION
Frames:	6
Frame Time:	0.00833333
-10.1682 21.5747 -100.579 -0.484666 15.9216 176.945 2.55092 1.05053 -1.05344 -2.52094 42.2566 -0.0558118 -19.0296 75.6896 9.06973 17.0572 -46.7348 10.2258 -6.31672 11.0754 -20.138 -51.0026 48.2331 -14.3737 -10.5362 0.670876 -1.04453 16.2007 1.9426 9.59427 7.77545 5.91453 14.1142 67.3593 52.3655 -5.46736 4.14446 5.26536 16.2962 -29.9118 12.9204 -30.4691 153.028 -64.1767 154.278 -177.41 39.6395 167.735 13.8477 -45.6104 10.6365 -5.96354e-016 3.18055e-015 -7.95139e-016 -144.233 -65.0197 -127.867 173.597 30.9519 -144.505 -30.7398 -46.3859 -32.371 -0 -3.18055e-015 -0 
-10.0929 21.6865 -100.762 -0.54146 15.4019 176.927 2.5804 1.09776 -1.15193 -2.5489 42.1424 -0.144955 -19.0296 75.6896 9.06973 17.0572 -46.7348 10.2258 -6.49616 11.0505 -20.1448 -50.7801 48.4152 -14.2642 -10.3487 0.853114 -1.0138 15.1258 2.0122 9.40895 8.03801 6.11565 14.304 66.6837 52.288 -5.20443 4.12454 5.23986 16.2432 -29.6341 12.6813 -29.9716 153.191 -64.0691 154.354 -177.439 39.4851 167.595 14.1716 -45.9939 11.0083 -1.98785e-016 6.36111e-015 -3.97569e-016 -144.059 -64.8689 -127.806 173.601 30.8114 -144.361 -31.117 -46.536 -32.6412 -3.53113e-031 -6.36111e-015 -3.18055e-015 
-10.0262 21.8166 -100.969 -0.664839 14.9545 176.776 2.59135 0.996396 -1.1541 -2.75112 42.3433 -0.065883 -19.0296 75.6896 9.06973 17.0572 -46.7348 10.2258 -6.4337 11.0662 -20.1726 -50.4121 48.4571 -14.5191 -10.2685 1.0827 -0.916754 14.2161 2.14738 9.18581 8.11774 6.05031 14.4733 66.4089 52.1926 -5.02419 4.1171 5.26695 16.078 -29.3646 12.5498 -29.6452 152.972 -63.9608 154.207 -177.576 39.2775 167.615 14.4522 -46.309 11.3676 3.97569e-016 9.54166e-015 3.97569e-016 -144.208 -64.8227 -127.972 173.591 30.6685 -144.271 -31.3539 -46.6585 -32.7829 -8.82781e-032 3.18055e-015 1.59028e-015 
-9.95433 21.9393 -101.142 -0.763188 14.4643 176.597 2.5726 0.994072 -1.12111 -2.86338 42.3656 0.0109686 -19.0296 75.6896 9.06973 17.0572 -46.7348 10.2258 -6.44855 11.0586 -20.2412 -50.1523 48.4924 -14.6465 -10.1168 1.3111 -0.735642 13.2317 2.27563 8.86897 8.30924 6.07042 14.5263 65.842 51.8725 -4.63793 4.2375 5.31862 15.8111 -29.2201 12.4296 -29.1923 152.819 -63.8152 154.157 -177.772 39.1186 167.787 14.6554 -46.6594 11.6285 3.97569e-016 0 -0 -144.485 -64.7829 -128.426 173.632 30.5807 -144.385 -31.5157 -46.8497 -32.8405 -1.59028e-015 0 -1.59028e-015 
-9.90112 22.0843 -101.323 -0.902559 14.0485 176.385 2.55609 1.07236 -1.07319 -3.02119 42.3364 0.120883 -19.0296 75.6896 9.06973 17.0572 -46.7348 10.2258 -6.59566 11.0198 -20.4497 -50.0104 48.4402 -14.4486 -9.96207 1.50243 -0.650085 12.2515 2.3715 8.62032 8.61553 6.16649 14.6291 65.133 51.3421 -4.25852 4.4624 5.29979 15.572 -29.2628 12.2798 -28.7474 152.423 -63.715 153.876 -177.917 38.9399 167.816 14.9222 -46.9222 11.9541 -1.98785e-016 0 3.97569e-016 -144.666 -64.8274 -128.657 173.655 30.5061 -144.425 -31.5598 -47.1059 -32.8335 -1.59028e-015 -3.18055e-015 -3.18055e-015 
-9.86524 22.2596 -101.577 -1.07093 13.7384 176.106 2.53069 0.972117 -0.972317 -3.23049 42.6349 0.310084 -19.0296 75.6896 9.06973 17.0572 -46.7348 10.2258 -6.67585 11.0146 -20.646 -49.6346 48.3858 -14.5295 -9.92008 1.56729 -0.609062 11.3469 2.34051 8.3085 8.80985 6.18741 14.7811 64.6496 50.7576 -3.97075 4.60885 5.033 15.3213 -29.2434 11.8469 -28.1721 151.765 -63.6565 153.388 -178.066 38.6403 167.798 15.2811 -47.0559 12.3955 4.41391e-032 6.36111e-015 -3.97569e-016 -144.74 -64.9191 -128.69 173.685 30.3792 -144.285 -31.595 -47.2237 -32.9384 -7.95139e-016 6.36111e-015 1.59028e-015 
